<?xml version="1.0" encoding="utf-8"?>
<!-- Generator: Adobe Illustrator 21.1.0, SVG Export Plug-In . SVG Version: 6.00 Build 0)  -->
<svg version="1.1" id="Calque_1" xmlns="http://www.w3.org/2000/svg" xmlns:xlink="http://www.w3.org/1999/xlink" x="0px" y="0px"
	 viewBox="0 0 1654 2500" style="enable-background:new 0 0 1654 2500;" xml:space="preserve">
<style type="text/css">
	.st0{fill:#FFFFFF;}
</style>
<path class="st0" d="M946.1,743.1v1724.8c0,18.3,18.3,29.8,34.4,20.6l662-359.6c6.9-4.6,11.5-11.5,11.5-20.6v-978.1
	c0-9.2-4.6-16-11.5-20.6L982.8,722.5C966.7,713.4,946.1,724.8,946.1,743.1L946.1,743.1z M852.2,2474.8V23.9c0-16-16-27.5-32.1-22.9
	l-804,297.8c-9.2,4.6-16,11.5-16,22.9v1864.5c0,9.2,6.9,18.3,16,22.9l804,288.6C836.2,2502.3,852.2,2490.8,852.2,2474.8
	L852.2,2474.8z"/>
</svg>
