<svg xmlns="http://www.w3.org/2000/svg" viewBox="0 0 1826.8 560"><path d="M370.1 43.7h98.5V325c0 20.6-3.7 39.2-11 55.7-7 16-17.2 30.4-30.1 42.2-13 11.9-28.2 21-44.8 27-17.8 6.3-36.6 9.5-55.5 9.3-20.6 0-39.6-2.5-56.9-7.6-17.3-5.3-32.2-13.1-44.8-23.7-12.7-11-22.7-24.8-29.3-40.3-6.9-16.3-10.4-35.7-10.4-58h99.1c0 10.5.9 19.2 2.8 26.2 1.9 6.8 4.6 12.2 8.2 16.3 3.6 3.9 8.1 6.8 13.2 8.4 5.8 1.8 11.9 2.6 18 2.5 13.7 0 24.2-5.1 31.5-15.2 7.5-10.3 11.3-24.7 11.3-43.1.2.3.2-281 .2-281m372.4 301c.1-5.9-.8-11.7-2.8-17.2-1.7-5.3-5.2-10.1-10.4-14.6-5.3-4.7-12.7-9.3-22.2-13.8s-21.9-9.3-37.2-14.4c-17.7-5.9-35.1-12.7-52.1-20.3-15.9-7-30.8-16-44.5-26.7-12.6-9.9-23.3-22.1-31.3-36-7.7-13.9-11.5-30-11.5-48.4 0-17.6 3.9-33.5 11.8-47.6 8.1-14.5 19.3-26.9 32.9-36.3 14.1-9.9 30.7-17.6 49.8-23.1 20.6-5.6 41.8-8.4 63.1-8.2 22.3 0 42.9 3 61.7 9 18.8 6 34.9 14.6 48.4 25.6 13.4 10.9 24.1 24.7 31.5 40.3 7.7 15.6 11.5 33 11.5 52.4h-98.5c.1-7.2-1.2-14.4-3.7-21.1-2.1-6.3-5.8-12.1-10.7-16.6-5-4.9-11.1-8.7-17.7-11-6.9-2.6-15.2-3.9-24.8-3.9-8.4-.2-16.8 1-24.8 3.4-6.5 1.8-12.6 4.9-18 9-4.5 3.5-8.2 8.1-10.7 13.2-2.4 4.9-3.7 10.3-3.7 15.8 0 6 1.7 11.9 5.1 16.9 4.2 5.5 9.2 10.2 14.9 14.1 7.5 4.8 15.4 8.9 23.6 12.4 9.4 3.8 19.9 7.5 31.5 11.3 20 6.2 39.5 13.9 58.3 23.1 17.1 8.4 31.4 18.1 43.1 29 11.4 10.3 20.5 22.9 26.7 36.9 6.2 13.7 9.3 29.2 9.3 46.5 0 18.4-3.7 34.8-11 49.3-7.2 14.3-17.7 26.7-30.7 36-13.1 9.8-29.1 17.2-47.9 22.2-18.6 5.1-39.3 7.6-62.2 7.6-14.1 0-28.1-1.2-42-3.7-13.7-2.2-27.1-5.8-40-10.7-12.4-4.8-24.3-11-35.5-18.3-10.8-7.4-20.4-16.4-28.4-26.7-8.1-10.7-14.5-22.6-18.9-35.2-4.5-13.1-6.8-27.8-6.8-43.9h99.1c0 12 1.6 22.1 4.8 30.4 2.9 7.7 7.8 14.5 14.1 19.7 6.6 5.3 14.3 9 22.5 11 10.2 2.2 20.6 3.2 31 3.1 9.4 0 17.4-1 23.9-3.1 6-1.9 11.6-4.8 16.6-8.7 4.1-3.5 7.3-8 9.3-13 2.4-4.9 3.6-10.3 3.5-15.7m497.3-87.6c0 31.3-4.4 59.5-13.2 84.5s-21.2 46.2-37.2 63.6c-15.7 17.4-35 31.2-56.6 40.3-21.8 9.2-45.7 13.8-71.8 13.8-26.5 0-50.8-4.6-72.9-13.8-21.7-9.2-41.1-22.9-56.9-40.3-15.8-17.5-28.1-38.7-36.9-63.6-8.8-25-13.2-53.1-13.2-84.5v-16.6c0-31.3 4.3-59.5 13-84.5 8.8-25 21.1-46.2 36.9-63.6 15.8-17.4 35.2-31.1 56.9-40.3 22-9.4 46.2-14.1 72.6-14.1 26.1 0 50.1 4.7 72.1 14.1 21.6 9.1 40.9 22.9 56.6 40.3 16 17.5 28.3 38.7 37.2 63.6s13.5 53.1 13.5 84.5l-.1 16.6m-100.6-17.2c0-40.7-6.9-71.5-20.6-92.6-13.5-21.2-32.9-31.8-58.3-31.8-26.5 0-46.3 10.6-59.4 31.8-13 21-19.4 51.9-19.4 92.6v17.2c0 40.2 6.7 71 20 92.6s33.1 32.4 59.4 32.4c25.2 0 44.5-10.7 58-32.1 13.5-21.6 20.3-52.6 20.3-92.9v-17.2m493.3 213.7h-98.3l-145.3-255.1v255.1h-98.8V43.7h98.8l145 255.1V43.7h98.5l.1 409.9M147.1 555c-19.3-5.4-35.5-12.6-48.4-21.4-12.2-8.1-22.8-18.4-31.3-30.4-7.9-11.2-13.6-23.9-16.9-37.2-3.3-13.8-4.9-28-4.8-42.2v-57.2c.1-7.7-.8-15.4-2.8-22.8-1.4-6.3-4.2-12.1-8.2-17.2-3.7-4.9-8.5-8.8-14.1-11.3-5.6-2.6-12.5-3.9-20.6-3.9v-63.9c16 0 27.5-5 34.6-14.9 7.3-10.1 11-23.7 11-40.5v-57.2c-.1-14.2 1.5-28.4 4.8-42.2 3.3-13.3 9-25.9 16.9-37.2 8.5-11.9 19.1-22.1 31.3-30.1 13-8.8 29.1-16 48.4-21.4l17.7 49.6c-6.9 2.5-13.1 6.7-18 12.1-4.8 5.5-8.6 11.8-11.3 18.6-3 7.5-5 15.4-5.9 23.4-1.1 9.1-1.7 18.2-1.7 27.3v57.2c0 18.8-4.1 35.8-12.4 51-8.3 15.2-21.5 27.3-39.7 36.3 18.2 9 31.4 21.2 39.7 36.6 8.3 15.2 12.4 32.1 12.4 50.7V424c0 9.1.6 18.2 1.7 27.3 1 8 3 15.9 5.9 23.4 2.6 6.8 6.5 13.1 11.3 18.6 4.9 5.4 11.1 9.6 18 12.1.1-.2-17.6 49.6-17.6 49.6m1515-49.8c6.9-2.5 13-6.7 18-12.1 4.8-5.5 8.6-11.8 11.3-18.6 3-7.5 5-15.4 5.9-23.4 1.1-9.1 1.7-18.2 1.7-27.3v-57.2c0-18.8 4.1-35.8 12.4-51 8.3-15.2 21.6-27.3 40-36.3-18.4-9-31.7-21.1-40-36.3-8.3-15.2-12.4-32.2-12.4-51v-57.2c0-9.1-.6-18.2-1.7-27.3-1-8-3-15.9-5.9-23.4-2.6-6.8-6.5-13.1-11.3-18.6-4.9-5.4-11.1-9.6-18-12.1L1679.8 4c19.3 5.4 35.5 12.6 48.4 21.4 12.3 7.9 22.9 18.2 31.3 30.1 7.9 11.2 13.5 23.8 16.6 37.2 3.5 13.8 5.2 28 5.1 42.2v57.2c-.1 7.8.8 15.5 2.5 23.1 1.6 6.3 4.4 12.2 8.2 17.5 3.8 4.7 8.6 8.5 14.1 11 5.8 2.6 12.8 3.9 20.8 3.9v63.9c-16.1 0-27.8 5.1-34.9 15.2-7.1 9.9-10.7 23.3-10.7 40v57.2c.1 14.2-1.6 28.4-5.1 42.2-3.1 13.3-8.7 26-16.6 37.2-7.9 11.5-18.3 21.6-31.3 30.4-13 8.8-29.1 16-48.4 21.4l-17.7-49.9" fill="#fff"/></svg>